<svg width="32" height="31" viewBox="0 0 32 31" fill="none" xmlns="http://www.w3.org/2000/svg">
<path d="M2.875 30.7499C2.14583 30.7499 1.52633 30.4944 1.0165 29.9834C0.5055 29.4736 0.25 28.8541 0.25 28.1249V24.7999L7.25 18.5874V30.7499H2.875ZM9 30.7499V23.7499H23V30.7499H9ZM24.75 30.7499V16.3999L17.2688 9.74995L22.5625 5.0687L30.875 12.4624C31.1667 12.7249 31.3854 13.0236 31.5312 13.3584C31.6771 13.6944 31.75 14.052 31.75 14.4312V28.1249C31.75 28.8541 31.4945 29.4736 30.9835 29.9834C30.4737 30.4944 29.8542 30.7499 29.125 30.7499H24.75ZM0.25 22.4374V14.4312C0.25 14.052 0.322917 13.6874 0.46875 13.3374C0.614583 12.9874 0.833333 12.6958 1.125 12.4624L14.25 0.824951C14.4833 0.591618 14.7534 0.423618 15.0603 0.320951C15.3659 0.219451 15.6792 0.168701 16 0.168701C16.3208 0.168701 16.6347 0.219451 16.9415 0.320951C17.2472 0.423618 17.5167 0.591618 17.75 0.824951L21.25 3.9312L0.25 22.4374Z" fill="url(#paint0_linear_62_3256)"/>
<defs>
<linearGradient id="paint0_linear_62_3256" x1="16" y1="0.168701" x2="16" y2="30.7499" gradientUnits="userSpaceOnUse">
<stop stop-color="#0074FD"/>
<stop offset="1" stop-color="#00D1FF"/>
</linearGradient>
</defs>
</svg>
